<svg xmlns="http://www.w3.org/2000/svg" width="1040" height="400" viewBox="0 0 1040 400" role="img" aria-labelledby="title desc">
  <title id="title">Training and validation loss for the early 8-layer chess model</title>
  <desc id="desc">Most of the drop happens in the first ten thousand steps, then improvement slows down.</desc>
  <style>
    text { fill: #171717; }
    .serif { font-family: Georgia, 'Times New Roman', serif; }
    .sans { font-family: -apple-system, BlinkMacSystemFont, 'Segoe UI', sans-serif; }
    .muted { fill: #6f675c; }
    .grid { stroke: #ece4d8; stroke-width: 1; }
    .axis { stroke: #cbbfae; stroke-width: 1.2; }
    .train { stroke: #c35c3f; }
    .val { stroke: #4d6c7e; }
  </style>
  <rect width="1040" height="400" fill="#fffdf9"/>
  <text x="94" y="28" class="sans" font-size="12" font-weight="700" letter-spacing="1.5" fill="#b23a2a">FIRST GPU RUN</text>
  <text x="94" y="62" class="serif" font-size="29" font-weight="600">The first big drop happened early</text>
  <rect x="94.00" y="108" width="176.79" height="242" fill="#f7f0e6"/>
  <text x="182.39" y="128" class="sans muted" font-size="13" font-weight="600" text-anchor="middle">most of the drop</text>
  <line x1="94" y1="334.20" x2="978" y2="334.20" class="grid"/>
  <text x="80" y="338.20" class="sans muted" font-size="12" text-anchor="end">2</text>
  <line x1="94" y1="271.00" x2="978" y2="271.00" class="grid"/>
  <text x="80" y="275.00" class="sans muted" font-size="12" text-anchor="end">3</text>
  <line x1="94" y1="207.80" x2="978" y2="207.80" class="grid"/>
  <text x="80" y="211.80" class="sans muted" font-size="12" text-anchor="end">4</text>
  <line x1="94" y1="144.59" x2="978" y2="144.59" class="grid"/>
  <text x="80" y="148.59" class="sans muted" font-size="12" text-anchor="end">5</text>
  <line x1="94" y1="81.39" x2="978" y2="81.39" class="grid"/>
  <text x="80" y="85.39" class="sans muted" font-size="12" text-anchor="end">6</text>
  <text x="94.00" y="382" class="sans muted" font-size="12" text-anchor="middle">1</text>
  <text x="270.79" y="382" class="sans muted" font-size="12" text-anchor="middle">10k</text>
  <text x="447.59" y="382" class="sans muted" font-size="12" text-anchor="middle">20k</text>
  <text x="624.39" y="382" class="sans muted" font-size="12" text-anchor="middle">30k</text>
  <text x="801.20" y="382" class="sans muted" font-size="12" text-anchor="middle">40k</text>
  <text x="978.00" y="382" class="sans muted" font-size="12" text-anchor="middle">50k</text>
  <line x1="94" y1="350" x2="978" y2="350" class="axis"/>
  <line x1="94" y1="108" x2="94" y2="350" class="axis"/>
  <polyline fill="none" class="train" stroke-width="4" stroke-linecap="round" stroke-linejoin="round" points="94.00,108.00 95.75,121.03 97.52,131.52 99.29,140.45 101.05,148.53 102.82,155.31 104.59,187.93 106.36,198.96 108.13,207.09 109.89,214.14 111.66,219.64 113.43,225.22 115.20,229.36 116.97,233.44 118.73,236.75 120.50,239.81 122.27,242.60 124.04,245.06 125.81,247.46 127.57,249.86 129.34,251.91 131.11,253.85 132.88,255.47 134.65,257.19 136.42,258.60 138.18,260.16 139.95,261.49 141.72,263.02 143.49,263.50 145.26,264.90 147.02,266.60 148.79,267.58 150.56,268.98 152.33,270.08 154.10,271.34 155.86,272.79 157.63,274.01 159.40,275.08 161.17,275.88 162.94,277.36 164.70,278.32 166.47,279.08 168.24,279.97 170.01,280.59 171.78,281.32 173.54,281.91 175.31,282.44 177.08,282.96 178.85,283.14 180.62,283.84 182.38,284.59 184.15,284.94 185.92,285.58 187.69,286.24 189.46,287.05 191.22,287.83 192.99,288.60 194.76,289.32 196.53,289.80 198.30,290.70 200.06,291.31 201.83,291.72 203.60,292.72 205.37,293.09 207.14,293.50 208.90,293.78 210.67,294.13 212.44,294.65 214.21,294.75 215.98,295.54 217.74,295.79 219.51,295.97 221.28,296.48 223.05,296.95 224.82,297.37 226.58,298.02 228.35,298.39 230.12,299.11 231.89,299.25 233.66,299.81 235.43,300.17 237.19,300.53 238.96,300.92 240.73,301.81 242.50,301.87 244.27,302.29 246.03,302.48 247.80,302.97 249.57,303.12 251.34,303.53 253.11,303.73 254.87,304.13 256.64,304.55 258.41,305.01 260.18,304.79 261.95,305.23 263.71,305.72 265.48,305.86 267.25,305.93 269.02,306.03 270.79,306.39 272.55,306.78 274.32,306.81 276.09,307.55 277.86,308.46 279.63,308.59 281.39,308.72 283.16,308.66 284.93,309.17 286.70,309.70 288.47,310.41 290.23,310.66 292.00,310.79 293.77,311.37 295.54,311.52 297.31,311.44 299.07,311.91 300.84,312.12 302.61,312.80 304.38,313.07 306.15,313.29 307.91,313.23 309.68,313.63 311.45,313.98 313.22,314.11 314.99,314.17 316.75,314.49 318.52,314.72 320.29,315.18 322.06,315.31 323.83,315.63 325.59,315.90 327.36,315.88 329.13,316.14 330.90,316.30 332.67,316.32 334.44,316.46 336.20,316.41 337.97,316.79 339.74,316.78 341.51,316.73 343.28,316.75 345.04,316.85 346.81,317.31 348.58,317.51 350.35,317.68 352.12,317.99 353.88,318.15 355.65,318.35 357.42,318.24 359.19,318.59 360.96,319.19 362.72,319.42 364.49,319.41 366.26,319.88 368.03,319.95 369.80,320.07 371.56,320.37 373.33,320.59 375.10,320.85 376.87,321.34 378.64,321.47 380.40,321.33 382.17,321.35 383.94,321.76 385.71,321.61 387.48,321.76 389.24,322.41 391.01,322.38 392.78,322.67 394.55,322.66 396.32,322.89 398.08,322.96 399.85,323.22 401.62,323.65 403.39,323.78 405.16,323.75 406.92,324.07 408.69,323.79 410.46,323.95 412.23,323.88 414.00,324.14 415.76,324.38 417.53,324.40 419.30,324.44 421.07,324.49 422.84,324.72 424.60,325.18 426.37,325.07 428.14,325.01 429.91,325.33 431.68,325.59 433.45,325.74 435.21,325.52 436.98,325.74 438.75,325.85 440.52,325.80 442.29,325.99 444.05,325.72 445.82,325.83 447.59,326.26 449.36,326.45 451.13,326.56 452.89,326.37 454.66,326.35 456.43,326.41 458.20,326.70 459.97,326.99 461.73,326.93 463.50,327.53 465.27,327.77 467.04,328.17 468.81,328.24 470.57,328.22 472.34,328.75 474.11,329.06 475.88,329.16 477.65,329.16 479.41,329.32 481.18,329.39 482.95,329.27 484.72,329.19 486.49,329.25 488.25,329.26 490.02,329.68 491.79,329.81 493.56,330.05 495.33,330.25 497.09,330.36 498.86,330.30 500.63,330.66 502.40,331.05 504.17,331.40 505.93,331.37 507.70,331.46 509.47,331.40 511.24,331.26 513.01,331.16 514.77,331.33 516.54,331.58 518.31,331.71 520.08,331.70 521.85,331.38 523.61,331.65 525.38,331.81 527.15,331.76 528.92,331.90 530.69,332.20 532.46,332.40 534.22,332.41 535.99,332.53 537.76,332.71 539.53,332.71 541.30,333.08 543.06,332.91 544.83,333.06 546.60,333.29 548.37,333.24 550.14,333.33 551.90,333.22 553.67,333.43 555.44,333.16 557.21,332.95 558.98,333.13 560.74,333.11 562.51,333.30 564.28,333.22 566.05,333.33 567.82,333.47 569.58,333.42 571.35,333.52 573.12,333.24 574.89,333.45 576.66,333.79 578.42,333.79 580.19,334.07 581.96,334.27 583.73,334.46 585.50,334.55 587.26,334.79 589.03,335.08 590.80,335.10 592.57,335.57 594.34,335.64 596.10,335.82 597.87,335.90 599.64,335.78 601.41,336.05 603.18,335.89 604.94,335.90 606.71,335.78 608.48,335.63 610.25,335.82 612.02,335.98 613.78,336.20 615.55,336.18 617.32,336.12 619.09,336.03 620.86,335.62 622.62,335.87 624.39,336.11 626.16,336.29 627.93,336.57 629.70,336.74 631.47,336.51 633.23,336.74 635.00,336.87 636.77,337.04 638.54,337.39 640.31,337.72 642.07,337.71 643.84,337.86 645.61,337.84 647.38,337.61 649.15,337.96 650.91,338.38 652.68,338.29 654.45,338.55 656.22,338.44 657.99,338.35 659.75,338.57 661.52,338.67 663.29,338.48 665.06,339.12 666.83,339.38 668.59,339.28 670.36,339.27 672.13,338.91 673.90,338.58 675.67,338.96 677.43,339.14 679.20,338.99 680.97,338.91 682.74,339.04 684.51,338.65 686.27,338.91 688.04,339.05 689.81,338.88 691.58,339.32 693.35,339.46 695.11,339.38 696.88,339.28 698.65,339.11 700.42,339.14 702.19,339.36 703.95,339.15 705.72,339.20 707.49,339.18 709.26,339.21 711.03,339.19 712.79,339.19 714.56,339.60 716.33,339.73 718.10,340.20 719.87,340.51 721.63,340.52 723.40,340.94 725.17,341.00 726.94,340.99 728.71,341.16 730.48,341.27 732.24,341.48 734.01,341.38 735.78,341.71 737.55,341.50 739.32,341.05 741.08,340.90 742.85,340.79 744.62,340.61 746.39,340.60 748.16,340.79 749.92,340.88 751.69,340.97 753.46,340.84 755.23,340.77 757.00,340.79 758.76,341.40 760.53,341.77 762.30,341.75 764.07,341.58 765.84,341.79 767.60,341.81 769.37,341.95 771.14,342.07 772.91,342.41 774.68,342.50 776.44,342.62 778.21,342.31 779.98,342.42 781.75,342.89 783.52,343.38 785.28,343.51 787.05,343.62 788.82,343.47 790.59,343.47 792.36,343.36 794.12,343.39 795.89,343.44 797.66,343.82 799.43,343.80 801.20,343.69 802.96,343.50 804.73,343.42 806.50,343.48 808.27,343.66 810.04,343.49 811.80,343.59 813.57,343.77 815.34,343.86 817.11,343.88 818.88,343.68 820.64,343.59 822.41,343.85 824.18,343.96 825.95,343.87 827.72,344.11 829.49,344.39 831.25,344.27 833.02,344.39 834.79,344.56 836.56,344.56 838.33,344.64 840.09,344.66 841.86,344.51 843.63,344.78 845.40,344.94 847.17,344.86 848.93,344.96 850.70,344.82 852.47,344.72 854.24,344.72 856.01,344.70 857.77,344.73 859.54,344.90 861.31,345.10 863.08,344.97 864.85,344.98 866.61,345.17 868.38,345.29 870.15,345.70 871.92,345.84 873.69,346.00 875.45,346.20 877.22,346.34 878.99,346.53 880.76,346.47 882.53,346.27 884.29,346.50 886.06,346.40 887.83,346.54 889.60,346.37 891.37,346.32 893.13,346.02 894.90,345.94 896.67,345.94 898.44,345.90 900.21,346.16 901.97,346.36 903.74,346.09 905.51,346.07 907.28,345.97 909.05,346.27 910.81,346.18 912.58,346.36 914.35,346.48 916.12,346.47 917.89,346.68 919.65,346.51 921.42,346.49 923.19,346.60 924.96,346.58 926.73,346.51 928.50,346.38 930.26,346.81 932.03,346.87 933.80,347.07 935.57,347.30 937.34,347.28 939.10,347.48 940.87,347.65 942.64,347.68 944.41,347.55 946.18,347.70 947.94,347.70 949.71,347.45 951.48,347.81 953.25,347.59 955.02,347.68 956.78,347.34 958.55,347.23 960.32,347.24 962.09,347.46 963.86,348.01 965.62,348.04 967.39,348.39 969.16,348.63 970.93,348.40 972.70,348.62 974.46,348.59 976.23,349.10 978.00,349.38"/>
  <polyline fill="none" class="val" stroke-width="4" stroke-linecap="round" stroke-linejoin="round" points="94.00,112.14 95.75,124.69 97.52,134.88 99.29,143.39 101.05,150.85 102.82,157.59 104.59,188.31 106.36,199.55 108.13,207.53 109.89,214.53 111.66,220.03 113.43,224.66 115.20,228.76 116.97,232.47 118.73,236.08 120.50,238.97 122.27,241.50 124.04,244.26 125.81,246.48 127.57,248.55 129.34,250.61 131.11,252.77 132.88,254.50 134.65,256.13 136.42,257.26 138.18,258.64 139.95,260.07 141.72,261.64 143.49,262.40 145.26,263.67 147.02,265.29 148.79,266.26 150.56,267.04 152.33,268.16 154.10,269.03 155.86,270.73 157.63,271.24 159.40,272.07 161.17,272.75 162.94,273.83 164.70,274.87 166.47,275.45 168.24,276.56 170.01,277.51 171.78,277.95 173.54,278.97 175.31,279.46 177.08,280.37 178.85,281.25 180.62,281.99 182.38,282.93 184.15,283.25 185.92,283.79 187.69,283.93 189.46,284.28 191.22,285.31 192.99,285.63 194.76,286.11 196.53,286.85 198.30,287.36 200.06,287.66 201.83,287.93 203.60,288.27 205.37,288.97 207.14,289.59 208.90,290.30 210.67,290.62 212.44,291.21 214.21,292.10 215.98,292.39 217.74,292.89 219.51,292.99 221.28,293.26 223.05,293.69 224.82,293.91 226.58,294.17 228.35,294.52 230.12,294.97 231.89,295.28 233.66,295.02 235.43,295.19 237.19,295.57 238.96,296.04 240.73,296.52 242.50,296.99 244.27,297.14 246.03,297.65 247.80,297.84 249.57,297.98 251.34,298.21 253.11,298.94 254.87,299.45 256.64,299.45 258.41,300.14 260.18,300.60 261.95,300.83 263.71,301.04 265.48,301.32 267.25,301.27 269.02,301.39 270.79,301.77 272.55,301.65 274.32,301.91 276.09,302.34 277.86,302.45 279.63,302.58 281.39,303.01 283.16,303.44 284.93,303.76 286.70,304.51 288.47,304.79 290.23,304.90 292.00,305.32 293.77,305.40 295.54,305.62 297.31,305.75 299.07,305.79 300.84,305.90 302.61,305.76 304.38,305.70 306.15,305.77 307.91,305.85 309.68,306.08 311.45,305.96 313.22,306.06 314.99,306.04 316.75,306.38 318.52,306.52 320.29,306.48 322.06,306.90 323.83,307.01 325.59,307.14 327.36,307.29 329.13,307.50 330.90,307.64 332.67,308.19 334.44,308.39 336.20,308.41 337.97,308.59 339.74,308.68 341.51,308.64 343.28,309.09 345.04,309.45 346.81,309.97 348.58,309.92 350.35,310.11 352.12,309.99 353.88,310.13 355.65,310.09 357.42,310.19 359.19,310.48 360.96,311.03 362.72,310.98 364.49,310.92 366.26,311.01 368.03,311.35 369.80,311.70 371.56,311.52 373.33,311.90 375.10,312.05 376.87,312.21 378.64,312.46 380.40,312.45 382.17,312.49 383.94,312.50 385.71,312.28 387.48,312.02 389.24,311.95 391.01,312.20 392.78,312.35 394.55,312.76 396.32,312.77 398.08,312.60 399.85,312.77 401.62,313.04 403.39,312.85 405.16,313.18 406.92,313.72 408.69,313.57 410.46,313.85 412.23,314.02 414.00,313.81 415.76,314.07 417.53,314.35 419.30,314.26 421.07,314.32 422.84,314.93 424.60,315.04 426.37,314.87 428.14,315.26 429.91,315.26 431.68,315.03 433.45,315.04 435.21,315.27 436.98,315.51 438.75,315.78 440.52,315.69 442.29,315.45 444.05,315.17 445.82,315.38 447.59,315.46 449.36,315.52 451.13,316.00 452.89,316.26 454.66,316.29 456.43,316.01 458.20,315.84 459.97,316.09 461.73,316.21 463.50,316.72 465.27,316.98 467.04,317.17 468.81,317.19 470.57,316.80 472.34,317.00 474.11,316.71 475.88,317.13 477.65,317.54 479.41,317.64 481.18,317.93 482.95,317.76 484.72,317.87 486.49,317.80 488.25,317.92 490.02,318.36 491.79,318.20 493.56,318.50 495.33,318.39 497.09,318.52 498.86,318.45 500.63,318.51 502.40,318.89 504.17,318.89 505.93,318.90 507.70,319.06 509.47,318.73 511.24,319.10 513.01,318.95 514.77,319.00 516.54,318.77 518.31,318.74 520.08,318.66 521.85,318.47 523.61,318.28 525.38,318.46 527.15,318.56 528.92,319.04 530.69,318.71 532.46,319.05 534.22,319.24 535.99,319.58 537.76,319.81 539.53,319.94 541.30,320.03 543.06,320.03 544.83,319.79 546.60,320.07 548.37,319.94 550.14,320.13 551.90,320.21 553.67,320.15 555.44,319.81 557.21,319.85 558.98,320.09 560.74,320.17 562.51,320.33 564.28,320.83 566.05,320.80 567.82,320.62 569.58,320.56 571.35,320.60 573.12,320.52 574.89,320.61 576.66,320.49 578.42,320.38 580.19,320.41 581.96,320.24 583.73,320.14 585.50,320.08 587.26,320.49 589.03,320.86 590.80,320.82 592.57,320.83 594.34,320.95 596.10,321.31 597.87,320.87 599.64,320.90 601.41,321.11 603.18,321.04 604.94,321.06 606.71,321.01 608.48,320.71 610.25,320.74 612.02,320.95 613.78,320.97 615.55,320.90 617.32,321.23 619.09,321.11 620.86,320.98 622.62,320.94 624.39,320.79 626.16,320.42 627.93,320.87 629.70,320.82 631.47,320.71 633.23,320.87 635.00,320.79 636.77,320.78 638.54,320.83 640.31,321.00 642.07,321.19 643.84,321.20 645.61,321.67 647.38,321.31 649.15,321.25 650.91,321.33 652.68,321.08 654.45,321.19 656.22,321.45 657.99,321.72 659.75,321.73 661.52,321.57 663.29,321.80 665.06,321.62 666.83,321.86 668.59,321.74 670.36,321.77 672.13,322.06 673.90,322.08 675.67,321.94 677.43,321.95 679.20,321.96 680.97,322.04 682.74,321.94 684.51,321.93 686.27,321.86 688.04,322.24 689.81,322.38 691.58,322.32 693.35,322.23 695.11,322.37 696.88,322.37 698.65,322.49 700.42,322.49 702.19,322.43 703.95,322.55 705.72,322.32 707.49,322.29 709.26,322.35 711.03,322.63 712.79,322.53 714.56,322.43 716.33,321.94 718.10,321.82 719.87,321.77 721.63,321.93 723.40,321.96 725.17,322.02 726.94,322.27 728.71,322.04 730.48,321.77 732.24,321.88 734.01,322.04 735.78,322.32 737.55,322.14 739.32,322.39 741.08,322.40 742.85,322.13 744.62,322.34 746.39,322.14 748.16,322.18 749.92,322.24 751.69,322.26 753.46,322.29 755.23,322.16 757.00,322.64 758.76,322.72 760.53,322.92 762.30,323.21 764.07,323.20 765.84,323.31 767.60,323.43 769.37,323.18 771.14,323.05 772.91,322.99 774.68,323.01 776.44,323.00 778.21,322.90 779.98,322.63 781.75,322.49 783.52,322.71 785.28,322.59 787.05,322.55 788.82,322.97 790.59,322.98 792.36,322.93 794.12,323.29 795.89,323.26 797.66,323.18 799.43,323.07 801.20,322.97 802.96,322.77 804.73,322.96 806.50,323.25 808.27,323.04 810.04,323.37 811.80,323.25 813.57,323.20 815.34,322.96 817.11,323.29 818.88,323.48 820.64,323.56 822.41,323.47 824.18,323.15 825.95,322.54 827.72,322.61 829.49,322.65 831.25,322.87 833.02,322.77 834.79,323.06 836.56,322.63 838.33,322.66 840.09,322.91 841.86,323.01 843.63,323.24 845.40,323.37 847.17,323.30 848.93,322.96 850.70,322.88 852.47,322.84 854.24,322.77 856.01,323.16 857.77,323.09 859.54,322.93 861.31,322.90 863.08,322.80 864.85,322.92 866.61,323.02 868.38,323.18 870.15,323.32 871.92,323.26 873.69,323.41 875.45,323.40 877.22,323.18 878.99,323.33 880.76,323.41 882.53,323.27 884.29,323.23 886.06,323.31 887.83,323.46 889.60,323.33 891.37,323.21 893.13,323.02 894.90,322.57 896.67,323.07 898.44,323.03 900.21,323.03 901.97,323.29 903.74,323.27 905.51,323.23 907.28,323.04 909.05,323.05 910.81,323.36 912.58,323.44 914.35,323.59 916.12,323.45 917.89,323.18 919.65,322.96 921.42,322.57 923.19,322.47 924.96,322.54 926.73,322.50 928.50,322.46 930.26,322.32 932.03,322.08 933.80,322.28 935.57,322.30 937.34,322.40 939.10,322.59 940.87,322.76 942.64,323.00 944.41,322.68 946.18,322.69 947.94,322.52 949.71,322.45 951.48,322.66 953.25,322.67 955.02,322.56 956.78,322.42 958.55,322.23 960.32,322.35 962.09,322.31 963.86,322.57 965.62,322.64 967.39,323.02 969.16,323.18 970.93,323.12 972.70,322.95 974.46,322.92 976.23,323.22 978.00,323.64"/>
  <text x="898.44" y="315.64" class="sans" font-size="13" font-weight="600" fill="#4d6c7e">validation</text>
  <text x="898.44" y="367.38" class="sans" font-size="13" font-weight="600" fill="#c35c3f">training</text>
</svg>
